# xmcd CD database file
#
# Track frame offsets:
#	150
#	15946
#	33208
#	43566
#	59614
#	79191
#	92935
#	104900
#	115011
#	124619
#	143215
#	158613
#
# Disc length: 2258 seconds
#
# Revision: 1
# Processed by: cddbd v1.5.2PL0 Copyright (c) Steve Scherf et al.
# Submitted via: CDex 1.51
#
DISCID=9608d00c
DTITLE=Johnny Cash - My Amercia - Best Of Vol. 2 - CD3
DYEAR=2009
DGENRE=Country
TTITLE0=25 Minutes To Go
TTITLE1=The Long Black Veil
TTITLE2=Flushed From The Bathroom Of Your Heart
TTITLE3=Sing A Travelin' Song
TTITLE4=A Boy Named Sue
TTITLE5=Last Night I Had The Strangest Dream
TTITLE6=Give My Love To Rose
TTITLE7=Darlin' Companion
TTITLE8=Ring Of Fire
TTITLE9=San Quentin
TTITLE10=Wanted Man
TTITLE11=I Don't Know Where I'm Bound
EXTD=YEAR: 2009
EXTT0=
EXTT1=
EXTT2=
EXTT3=
EXTT4=
EXTT5=
EXTT6=
EXTT7=
EXTT8=
EXTT9=
EXTT10=
EXTT11=
PLAYORDER=
